<svg width="209" height="208" viewBox="0 0 209 208" fill="none" xmlns="http://www.w3.org/2000/svg">
<path d="M112.985 0.370972C110.239 0.110972 107.494 0 104.711 0C101.928 0 99.145 0.110972 96.437 0.370972C43.006 4.56397 0.855011 49.387 0.855011 103.857C0.855011 158.29 42.858 203.001 96.177 207.343C98.997 207.603 101.854 207.714 104.711 207.714C107.568 207.714 110.425 207.603 113.245 207.343C166.527 203.002 208.567 158.29 208.567 103.857C208.567 49.387 166.379 4.56397 112.985 0.370972ZM197.25 98.291C197.25 98.294 197.25 98.298 197.25 98.301C197.25 98.301 196.526 98.301 195.29 98.301C177.942 98.298 163.303 85.827 160.008 68.794C155.902 47.565 148.134 29.65 137.956 17.329C171.054 30.055 195.061 61.26 197.25 98.291ZM110.273 195.173C110.273 195.172 110.273 195.172 110.273 195.173V145.295C110.273 125.489 126.329 109.433 146.135 109.433H150.609C149.27 153.14 131.794 189.759 110.273 195.173ZM99.141 12.58V62.439C99.141 82.245 83.085 98.301 63.279 98.301H58.774C58.774 98.298 58.774 98.294 58.774 98.291C60.148 54.584 77.585 18.001 99.141 12.58ZM99.141 145.294V195.17C77.586 189.75 60.113 153.135 58.775 109.432H63.279C83.085 109.432 99.141 125.488 99.141 145.294ZM110.273 62.438V12.577C131.796 17.991 149.236 54.578 150.609 98.29C150.609 98.293 150.609 98.297 150.609 98.3H146.134C126.329 98.301 110.273 82.245 110.273 62.438ZM71.465 17.328C61.287 29.65 53.519 47.564 49.413 68.793C46.119 85.826 31.48 98.296 14.131 98.3C12.895 98.3 12.171 98.3 12.171 98.3C12.171 98.297 12.171 98.293 12.171 98.29C14.36 61.26 38.367 30.055 71.465 17.328ZM12.172 109.432H14.133C31.485 109.432 46.12 121.905 49.416 138.941C53.521 160.161 61.279 178.068 71.428 190.385C38.333 177.659 14.364 146.421 12.172 109.432ZM137.994 190.385C148.143 178.067 155.901 160.16 160.006 138.941C163.301 121.905 177.937 109.432 195.289 109.432H197.25C195.057 146.421 171.088 177.659 137.994 190.385Z" fill="#EFEFEF"/>
</svg>
